<svg width="140" height="42" viewBox="0 0 140 42" fill="none" xmlns="http://www.w3.org/2000/svg">
<path fill-rule="evenodd" clip-rule="evenodd" d="M48.2325 29.2267L41.0399 29.2237L41.0312 32.3179L40.0713 32.3201L40.0831 28.4467H49.1806V32.3179H48.2325V29.2267Z" fill="white"/>
<path fill-rule="evenodd" clip-rule="evenodd" d="M69.3675 29.2237H62.5454L62.5422 30.3048H69.3788C69.6091 30.3048 69.7262 30.2025 69.7314 29.9983V29.5243C69.7334 29.3236 69.6125 29.2245 69.3675 29.2237ZM62.5454 31.0849V32.3202H61.5854V28.4497H69.5302C70.3071 28.4497 70.6946 28.7566 70.6946 29.3697V30.1308C70.6946 30.7689 70.3103 31.088 69.5415 31.088L62.5454 31.0849Z" fill="white"/>
<path fill-rule="evenodd" clip-rule="evenodd" d="M91.2643 31.2399V29.5513C91.2643 29.3344 91.1383 29.2271 90.8852 29.2271L84.4474 29.2267C84.1944 29.2267 84.0684 29.3286 84.0684 29.5301V31.231C84.0684 31.4412 84.1939 31.5463 84.4474 31.5463L90.8933 31.5459C91.1401 31.5459 91.2643 31.4444 91.2643 31.2399ZM84.2463 32.3202C83.4875 32.3202 83.1084 32.0099 83.1084 31.3883V29.3813C83.1084 28.762 83.4842 28.4529 84.2345 28.4529H91.0598C91.8315 28.4529 92.2177 28.77 92.2177 29.4037V31.4068C92.2177 32.0095 91.8434 32.3109 91.0983 32.3109L84.2463 32.3202Z" fill="white"/>
<path fill-rule="evenodd" clip-rule="evenodd" d="M116.957 29.2237H111.929V30.3106H116.949C117.194 30.3106 117.318 30.2061 117.319 29.9965V29.5235C117.323 29.3236 117.202 29.2245 116.957 29.2237ZM105.965 29.2237C105.7 29.2237 105.569 29.3236 105.57 29.5239L105.571 29.9957C105.574 30.2057 105.703 30.3114 105.958 30.3114L110.978 30.3106V29.2237H105.965ZM111.929 31.0849V32.3202H110.978V31.0849H105.78C105.01 31.0849 104.625 30.7762 104.625 30.1584V29.3767C104.625 28.7588 105.003 28.4505 105.757 28.4505L117.123 28.4497C117.899 28.4497 118.288 28.7565 118.288 29.3685V30.1286C118.288 30.7657 117.903 31.0853 117.135 31.0853L111.929 31.0849Z" fill="white"/>
<path fill-rule="evenodd" clip-rule="evenodd" d="M131.658 32.3109L130.707 32.3202V28.4529H131.67V31.3874L138.851 28.4436H139.811V32.3202H138.851V29.3336L131.658 32.3109Z" fill="white"/>
<path fill-rule="evenodd" clip-rule="evenodd" d="M58.9425 18.4007L52.9096 3.70598L46.7387 18.4007H58.9425ZM51.5281 1.38184H54.7049L65.6199 26.9101H62.3961L59.7245 20.3875H45.9096L43.1477 26.9101H39.9238L51.5281 1.38184Z" fill="#E31E24"/>
<path fill-rule="evenodd" clip-rule="evenodd" d="M79.6664 24.886C83.0277 24.886 85.9743 23.6492 85.9743 20.1254C85.9748 16.8637 83.5814 14.9148 79.6664 14.9148L75.1068 14.914L75.7979 12.8904H79.6664C83.12 12.8904 84.9624 10.3788 84.9624 7.86751C84.9624 4.86804 82.4755 3.36902 78.2379 3.36902L72.2972 3.36864V24.886H79.6664ZM69.4883 1.38184H77.8706C84.6855 1.38184 88.094 3.63127 88.094 7.86751C88.094 10.903 86.0666 12.8527 83.4892 13.6404C86.2968 14.4268 89.1529 16.3766 89.1529 20.1254C89.1529 24.4357 85.2844 26.9106 79.9884 26.9106L69.4883 26.9101V1.38184Z" fill="#E31E24"/>
<path fill-rule="evenodd" clip-rule="evenodd" d="M100.943 3.63092H92.332V1.64441H113.054L112.365 3.63092H103.752V26.9102H100.943V3.63092Z" fill="#E31E24"/>
<path fill-rule="evenodd" clip-rule="evenodd" d="M126.778 25.4108C133.548 25.4108 136.634 19.9381 136.634 13.6405C136.634 7.38006 133.18 2.8816 126.778 2.8816C120.515 2.8816 116.924 7.6427 116.924 13.6405C116.924 19.9373 120.102 25.4112 126.778 25.4108ZM126.778 27.4349C118.352 27.4349 113.792 21.4003 113.792 13.6405C113.792 6.25521 119.364 0.894775 126.778 0.894775C134.515 0.894775 139.811 6.2556 139.811 13.6405C139.811 21.3999 134.884 27.4353 126.778 27.4349Z" fill="#E31E24"/>
<path fill-rule="evenodd" clip-rule="evenodd" d="M11.2412 40.6963H1.92979C1.64197 40.6963 1.50253 40.5686 1.50253 40.3187V38.2828C1.50253 38.0484 1.65093 37.9276 1.94835 37.9276L11.2412 37.9272V37.0038H1.69762C0.805673 37.0038 0.359375 37.3679 0.359375 38.1014V40.4996C0.359375 41.2492 0.805673 41.6203 1.69762 41.6203L11.2412 41.6195V40.6963Z" fill="white"/>
<path fill-rule="evenodd" clip-rule="evenodd" d="M36.978 40.6963H27.2299V39.7732H36.978V38.8502H27.2299V37.9201H36.978V36.9967H26.0869V41.6194H36.978V40.6963Z" fill="white"/>
<path fill-rule="evenodd" clip-rule="evenodd" d="M61.5433 38.2828V38.8502C61.5433 39.0923 61.4039 39.2139 61.1252 39.2139L52.9478 39.2135L52.9568 37.9272H61.1066C61.4039 37.9272 61.5528 38.041 61.5433 38.2832V38.2828ZM61.3201 40.1522C62.2402 40.1522 62.6955 39.7664 62.6955 39.0099V38.1014C62.6955 37.3675 62.2311 37.0044 61.3016 37.0044L51.8047 37.0038V41.6195H52.9568V40.1444L61.3201 40.1522Z" fill="white"/>
<path fill-rule="evenodd" clip-rule="evenodd" d="M78.693 37.9272H86.8332C87.1586 37.9272 87.3165 38.0488 87.3075 38.2909V38.4644C87.2979 38.7216 87.1495 38.8506 86.8518 38.8506L78.693 38.8502V37.9272ZM78.6744 40.7041V39.7733H86.8798C87.1681 39.7733 87.3165 39.9027 87.3075 40.1526V40.3338C87.2979 40.5837 87.1495 40.7049 86.8518 40.7049L78.6744 40.7041ZM88.4502 40.5074V39.9325C88.4502 39.5765 88.218 39.3728 87.7442 39.3124C88.218 39.2515 88.4502 39.025 88.4502 38.6465V38.1092C88.4502 37.3751 87.995 37.0044 87.0934 37.0044L77.5498 37.0038V41.6195L87.0659 41.6128C87.9858 41.6128 88.4411 41.2418 88.4502 40.5082V40.5074Z" fill="white"/>
<path fill-rule="evenodd" clip-rule="evenodd" d="M113.021 38.0561V41.6194H114.164V36.9967H113.021L104.416 40.5073V37.0037H103.273V41.6194L104.398 41.6128L113.021 38.0561Z" fill="white"/>
<path fill-rule="evenodd" clip-rule="evenodd" d="M139.906 40.6963H130.594C130.306 40.6963 130.167 40.5686 130.167 40.3187L130.167 38.2828C130.167 38.0484 130.315 37.9276 130.613 37.9276L139.906 37.9272V37.0038H130.362C129.47 37.0038 129.023 37.3679 129.023 38.1014L129.024 40.4996C129.024 41.2492 129.47 41.6203 130.362 41.6203L139.906 41.6195V40.6963Z" fill="white"/>
<path fill-rule="evenodd" clip-rule="evenodd" d="M16.5079 18.1744C22.4708 18.6701 28.4182 18.828 34.4125 18.7165C36.9603 18.6685 39.5078 18.6507 42.0533 18.6426L42.2131 18.2883C40.4962 18.2689 38.7793 18.2499 37.0607 18.2309C34.0001 18.1977 30.9303 18.2793 27.8811 18.1094C25.0502 17.9517 22.2421 17.5274 19.4235 17.2233C17.1886 16.9817 14.9576 16.7099 12.716 16.5167C10.4803 16.3235 9.27387 17.5169 8.38616 18.9206C7.85444 19.7613 7.51144 20.6968 7.21694 21.6177C6.73648 23.1209 7.54414 23.8884 9.41752 23.8663C14.0437 23.8126 18.6705 23.7723 23.2977 23.732C24.6644 23.72 25.9411 22.911 26.3959 21.7439C26.3341 21.7431 26.2332 21.7222 26.2147 21.7459C25.0149 23.2185 23.2401 23.3149 21.2849 23.2568C18.1923 23.1654 15.0912 23.1713 11.9959 23.2286C10.1116 23.263 9.67916 22.8045 10.3446 21.1948C11.3584 18.7432 12.1895 17.8163 16.5079 18.1744Z" fill="white"/>
<path fill-rule="evenodd" clip-rule="evenodd" d="M6.01956 9.10873C7.15264 9.2474 8.30198 9.30276 9.44465 9.39137C10.4375 9.46765 11.4301 9.54273 12.571 9.62948C11.944 9.23413 11.2612 9.03508 10.5592 8.90846C7.87569 8.86661 5.76315 8.47564 5.76315 7.99314C5.76315 7.4831 8.11406 7.06921 11.0144 7.06921C13.9143 7.06882 16.2652 7.4831 16.2652 7.99314C16.2652 8.14678 16.0303 8.29009 15.6512 8.4179C15.9727 8.5771 16.2506 8.75086 16.4546 8.94105C16.1801 9.238 15.897 9.54552 15.5921 9.87544C17.5045 11.0631 19.6357 11.0639 21.8462 10.9222C27.3578 10.5689 32.8687 10.1724 38.3883 9.98033C40.9324 9.89133 43.4784 9.8406 46.0239 9.79954L46.1633 9.49096C37.1949 9.56685 28.183 9.97304 19.0266 10.5202C19.9947 9.35453 20.7873 8.35591 21.6389 7.39171C22.223 6.73068 22.9037 6.12819 23.5165 5.48345C25.082 3.83769 27.3543 3.33744 29.6919 3.08102C32.8217 2.7372 35.9684 2.43204 39.12 2.30622C42.6406 2.16477 46.1599 2.06729 49.5345 1.98173L49.7477 1.50692C45.4197 1.43646 40.8801 1.51898 36.3391 1.73195C33.0786 1.88413 29.8195 2.08238 26.5657 2.3131C24.1505 2.48435 22.3881 3.62272 20.8429 5.04465C20.0724 5.75415 19.2108 6.40155 18.4821 7.13688C18.0924 7.52918 17.7029 7.56321 17.2428 7.39011C13.6913 6.05228 10.0241 6.60367 6.3702 6.93134C6.19985 6.94564 6.03438 7.00326 5.86874 7.04591C5.19759 7.21941 4.47632 7.3786 4.54677 8.12546C4.61381 8.84079 5.3336 9.02542 6.01956 9.10873Z" fill="white"/>
<path fill-rule="evenodd" clip-rule="evenodd" d="M102.81 33.0935C78.3055 33.0335 53.7987 32.9707 29.2943 32.906C28.8076 32.9045 28.3039 32.9258 27.841 32.832C25.4544 32.3503 24.5711 30.9044 26.0101 29.2617C28.5222 26.3943 31.4055 23.8904 36.3123 23.8889C37.5154 23.8885 38.64 23.8861 39.7023 23.8827L39.9709 23.2813C38.7271 23.2678 37.0406 23.2585 34.5252 23.2547C31.8079 23.2507 29.4485 24.0275 27.6327 25.7445C26.3978 26.9136 24.9512 27.9746 23.9564 29.2661C22.0202 31.7799 24.4478 33.7703 27.2264 33.8791C32.0514 34.0669 36.8927 34.0484 41.7278 34.044C51.2652 34.0363 60.8034 33.9627 70.3408 33.9457C90.0779 33.9101 109.817 33.8968 129.554 33.869C131.294 33.8663 135.729 33.8578 139.864 33.8435L139.864 33.1557C127.948 33.1349 112.535 33.117 102.81 33.0935Z" fill="white"/>
<path fill-rule="evenodd" clip-rule="evenodd" d="M8.46009 25.7652C7.00682 25.7784 5.98489 26.64 6.18143 27.7865C6.37164 28.8948 6.67135 30.0175 7.15995 31.0594C7.6409 32.0844 8.85158 32.4956 10.1308 32.6526C11.0907 32.7698 12.063 32.8651 13.0316 32.8802C15.1775 32.9127 17.3247 32.8907 19.4882 32.7748C18.4736 32.6518 17.4608 32.5236 16.4452 32.407C14.8311 32.2208 13.1938 32.1228 11.6063 31.8374C10.2272 31.5888 9.13274 30.9541 8.88201 29.6747C8.81725 29.3436 8.63273 29.0299 8.53283 28.7024C8.0919 27.261 8.85433 26.3828 10.6958 26.3344C13.1642 26.2702 15.6355 26.2799 18.1054 26.2597C18.66 26.2547 19.2147 26.2589 19.7689 26.2589C19.7713 26.2094 19.7733 26.1609 19.7756 26.1118C18.0213 26.0095 16.2688 25.8698 14.5124 25.8171C12.4968 25.7559 10.477 25.7462 8.46009 25.7652Z" fill="white"/>
<path fill-rule="evenodd" clip-rule="evenodd" d="M7.64252 13.4932C7.72566 13.4471 7.80035 13.4363 7.88089 13.4034C8.71621 12.8133 10.3792 12.452 12.3172 12.4067C17.0929 12.2947 20.5922 15.1839 20.3229 16.0172C20.2596 16.2121 20.0997 16.3751 19.878 16.5106C22.6548 16.8882 25.4681 17.2417 28.2324 17.6839C28.2928 17.5437 25.0722 15.4856 23.3259 14.6782C20.9983 13.6017 18.6327 12.5407 16.1599 11.7182C11.7773 10.2607 7.57158 11.2148 5.16795 13.6207C3.68083 15.1084 2.9306 16.8947 2.35837 18.7256C1.22042 22.367 0.966418 26.0942 0.809408 29.8275C0.801923 29.9974 0.806151 30.1729 0.802734 30.3436V33.9349C1.23764 33.9411 1.69419 33.9473 2.2033 33.9534C2.22559 33.6142 2.24853 33.3455 2.25992 33.076C2.39595 29.8213 2.35169 26.5547 2.71696 23.3177C3.04806 20.379 3.75403 17.4488 5.80866 14.9075C6.26098 14.3471 6.95216 13.8763 7.64252 13.4932Z" fill="white"/>
</svg>
