<svg width="143" height="43" viewBox="0 0 143 43" fill="none" xmlns="http://www.w3.org/2000/svg">
<path fill-rule="evenodd" clip-rule="evenodd" d="M48.8263 29.8996L41.4903 29.8964L41.4815 33.1625L40.5024 33.1649L40.5145 29.0762H49.7932V33.1625H48.8263V29.8996Z" fill="#008585"/>
<path fill-rule="evenodd" clip-rule="evenodd" d="M70.3828 29.8963H63.4249L63.4216 31.0375H70.3944C70.6292 31.0375 70.7487 30.9295 70.754 30.714V30.2137C70.756 30.0018 70.6327 29.8972 70.3828 29.8963ZM63.4249 31.8609V33.1648H62.4458V29.0793H70.5488C71.3412 29.0793 71.7364 29.4033 71.7364 30.0505V30.8539C71.7364 31.5274 71.3445 31.8643 70.5604 31.8643L63.4249 31.8609Z" fill="#008585"/>
<path fill-rule="evenodd" clip-rule="evenodd" d="M92.7153 32.0246V30.2422C92.7153 30.0133 92.5869 29.9 92.3286 29.9L85.7627 29.8996C85.5046 29.8996 85.3761 30.0072 85.3761 30.2199V32.0152C85.3761 32.2371 85.5041 32.348 85.7627 32.348L92.3369 32.3476C92.5887 32.3476 92.7153 32.2405 92.7153 32.0246ZM85.5576 33.1649C84.7836 33.1649 84.397 32.8374 84.397 32.1812V30.0628C84.397 29.409 84.7803 29.0828 85.5455 29.0828H92.5067C93.2938 29.0828 93.6877 29.4176 93.6877 30.0864V32.2008C93.6877 32.837 93.3059 33.1551 92.5461 33.1551L85.5576 33.1649Z" fill="#008585"/>
<path fill-rule="evenodd" clip-rule="evenodd" d="M118.92 29.8963H113.792V31.0436H118.912C119.162 31.0436 119.288 30.9333 119.29 30.7121V30.2128C119.294 30.0018 119.17 29.8972 118.92 29.8963ZM107.709 29.8963C107.439 29.8963 107.305 30.0018 107.307 30.2132L107.307 30.7112C107.311 30.9329 107.442 31.0445 107.702 31.0445L112.822 31.0436V29.8963H107.709ZM113.792 31.8609V33.1648H112.822V31.8609H107.521C106.735 31.8609 106.343 31.5351 106.343 30.883V30.0579C106.343 29.4056 106.729 29.0802 107.497 29.0802L119.09 29.0793C119.881 29.0793 120.278 29.4032 120.278 30.0492V30.8515C120.278 31.524 119.886 31.8613 119.102 31.8613L113.792 31.8609Z" fill="#008585"/>
<path fill-rule="evenodd" clip-rule="evenodd" d="M133.914 33.1551L132.944 33.1649V29.0828H133.926V32.1804L141.25 29.073H142.229V33.1649H141.25V30.0125L133.914 33.1551Z" fill="#008585"/>
<path fill-rule="evenodd" clip-rule="evenodd" d="M59.7501 18.4722L53.597 2.96108L47.3032 18.4722H59.7501ZM52.1879 0.507812H55.428L66.5605 27.4544H63.2724L60.5476 20.5694H46.4575L43.6406 27.4544H40.3525L52.1879 0.507812Z" fill="#E31E24"/>
<path fill-rule="evenodd" clip-rule="evenodd" d="M80.8867 25.3178C84.315 25.3178 87.3203 24.0123 87.3203 20.2927C87.3208 16.8498 84.8797 14.7926 80.8867 14.7926L76.2363 14.7917L76.9412 12.6557H80.8867C84.4091 12.6557 86.2882 10.0046 86.2882 7.35381C86.2882 4.18769 83.7518 2.6054 79.4297 2.6054L73.3707 2.60499V25.3178H80.8867ZM70.5059 0.507812H79.0552C86.0058 0.507812 89.4822 2.88221 89.4822 7.35381C89.4822 10.5579 87.4144 12.616 84.7856 13.4474C87.6492 14.2775 90.5622 16.3356 90.5622 20.2927C90.5622 24.8424 86.6167 27.4548 81.2151 27.4548L70.5059 27.4544V0.507812Z" fill="#E31E24"/>
<path fill-rule="evenodd" clip-rule="evenodd" d="M102.587 2.88179H93.8042V0.784912H114.939L114.236 2.88179H105.451V27.4544H102.587V2.88179Z" fill="#E31E24"/>
<path fill-rule="evenodd" clip-rule="evenodd" d="M128.937 25.8717C135.841 25.8717 138.989 20.0949 138.989 13.4474C138.989 6.83923 135.466 2.09086 128.937 2.09086C122.549 2.09086 118.886 7.11646 118.886 13.4474C118.886 20.0941 122.128 25.8721 128.937 25.8717ZM128.937 28.0082C120.343 28.0082 115.692 21.6383 115.692 13.4474C115.692 5.65189 121.375 -0.00634766 128.937 -0.00634766C136.827 -0.00634766 142.229 5.65231 142.229 13.4474C142.229 21.6379 137.204 28.0086 128.937 28.0082Z" fill="#E31E24"/>
<path fill-rule="evenodd" clip-rule="evenodd" d="M11.0986 42.0063H1.6017C1.30814 42.0063 1.16593 41.8715 1.16593 41.6077V39.4587C1.16593 39.2113 1.31728 39.0838 1.62063 39.0838L11.0986 39.0834V38.1086H1.3649C0.455188 38.1086 0 38.4929 0 39.2673V41.7986C0 42.5899 0.455188 42.9816 1.3649 42.9816L11.0986 42.9807V42.0063Z" fill="#008585"/>
<path fill-rule="evenodd" clip-rule="evenodd" d="M37.3478 42.0064H27.4055V41.0321H37.3478V40.0578H27.4055V39.0761H37.3478V38.1013H26.2397V42.9809H37.3478V42.0064Z" fill="#008585"/>
<path fill-rule="evenodd" clip-rule="evenodd" d="M62.4029 39.4587V40.0577C62.4029 40.3132 62.2607 40.4415 61.9764 40.4415L53.6361 40.4411L53.6453 39.0834H61.9575C62.2606 39.0834 62.4125 39.2035 62.4029 39.4591V39.4587ZM62.1752 41.4319C63.1136 41.4319 63.5779 41.0247 63.5779 40.2262V39.2673C63.5779 38.4925 63.1043 38.1093 62.1563 38.1093L52.4702 38.1086V42.9807H53.6453V41.4237L62.1752 41.4319Z" fill="#008585"/>
<path fill-rule="evenodd" clip-rule="evenodd" d="M79.894 39.0834H88.1964C88.5283 39.0834 88.6892 39.2117 88.6801 39.4672V39.6505C88.6703 39.9219 88.519 40.0581 88.2153 40.0581L79.894 40.0577V39.0834ZM79.8751 42.0145V41.032H88.2438C88.5379 41.032 88.6892 41.1686 88.6801 41.4324V41.6237C88.6703 41.8874 88.519 42.0154 88.2153 42.0154L79.8751 42.0145ZM89.8455 41.8069V41.2001C89.8455 40.8243 89.6087 40.6092 89.1255 40.5455C89.6087 40.4813 89.8455 40.2421 89.8455 39.8426V39.2755C89.8455 38.5006 89.3812 38.1093 88.4617 38.1093L78.728 38.1086V42.9807L88.4337 42.9738C89.372 42.9738 89.8362 42.5821 89.8455 41.8077V41.8069Z" fill="#008585"/>
<path fill-rule="evenodd" clip-rule="evenodd" d="M114.906 39.2195V42.9809H116.072V38.1013H114.906L106.129 41.807V38.1087H104.964V42.9809L106.11 42.9739L114.906 39.2195Z" fill="#008585"/>
<path fill-rule="evenodd" clip-rule="evenodd" d="M142.326 42.0063H132.829C132.535 42.0063 132.393 41.8715 132.393 41.6077L132.393 39.4587C132.393 39.2113 132.545 39.0838 132.848 39.0838L142.326 39.0834V38.1086H132.592C131.682 38.1086 131.227 38.4929 131.227 39.2673L131.228 41.7986C131.228 42.5899 131.682 42.9816 132.592 42.9816L142.326 42.9807V42.0063Z" fill="#008585"/>
<path fill-rule="evenodd" clip-rule="evenodd" d="M16.4701 18.2334C22.5518 18.7567 28.6176 18.9234 34.7314 18.8057C37.3299 18.755 39.9281 18.7362 42.5243 18.7276L42.6873 18.3537C40.9362 18.3333 39.1852 18.3131 37.4323 18.2931C34.3107 18.258 31.1798 18.3442 28.0698 18.1648C25.1825 17.9984 22.3185 17.5505 19.4438 17.2295C17.1644 16.9745 14.8889 16.6876 12.6027 16.4837C10.3224 16.2797 9.09197 17.5395 8.18657 19.0211C7.64426 19.9086 7.29442 20.896 6.99406 21.868C6.50403 23.4548 7.32778 24.265 9.23847 24.2416C13.9568 24.1848 18.6758 24.1423 23.3951 24.0998C24.7891 24.0871 26.0912 23.2332 26.555 22.0013C26.492 22.0004 26.3891 21.9783 26.3702 22.0033C25.1465 23.5578 23.3364 23.6596 21.3422 23.5982C18.1881 23.5017 15.0252 23.5079 11.8682 23.5684C9.94641 23.6048 9.50532 23.1208 10.184 21.4216C11.218 18.8339 12.0657 17.8554 16.4701 18.2334Z" fill="#008585"/>
<path fill-rule="evenodd" clip-rule="evenodd" d="M5.77263 8.66389C6.92827 8.81027 8.10051 8.8687 9.26594 8.96223C10.2785 9.04276 11.291 9.122 12.4546 9.21357C11.815 8.79626 11.1187 8.58615 10.4027 8.45249C7.66573 8.40832 5.5111 7.99563 5.5111 7.48633C5.5111 6.94795 7.90885 6.51107 10.867 6.51107C13.8246 6.51065 16.2224 6.94795 16.2224 7.48633C16.2224 7.6485 15.9828 7.79977 15.5961 7.93468C15.924 8.10272 16.2074 8.28614 16.4155 8.4869C16.1356 8.80034 15.8468 9.12494 15.5359 9.47319C17.4864 10.7268 19.6599 10.7277 21.9145 10.5781C27.5359 10.2052 33.1566 9.78663 38.7861 9.58391C41.3809 9.48997 43.9776 9.43642 46.5738 9.39308L46.716 9.06735C37.569 9.14746 28.3775 9.57622 19.0388 10.1537C20.0262 8.92334 20.8345 7.86924 21.7031 6.85148C22.2988 6.15372 22.9931 5.51776 23.6181 4.8372C25.2148 3.10001 27.5324 2.57197 29.9165 2.30131C33.1086 1.93838 36.318 1.61628 39.5324 1.48346C43.1231 1.33416 46.7125 1.23126 50.1544 1.14095L50.3718 0.63976C45.9576 0.565385 41.3276 0.652486 36.6961 0.877288C33.3707 1.03792 30.0466 1.24719 26.7281 1.49073C24.2648 1.67149 22.4672 2.8731 20.8913 4.37402C20.1053 5.12295 19.2267 5.80631 18.4834 6.5825C18.086 6.99659 17.6887 7.03251 17.2194 6.84979C13.5971 5.43764 9.85689 6.01966 6.13025 6.36553C5.95651 6.38063 5.78774 6.44145 5.61881 6.48646C4.93428 6.66961 4.19864 6.83765 4.2705 7.62599C4.33887 8.38107 5.073 8.57596 5.77263 8.66389Z" fill="#008585"/>
<path fill-rule="evenodd" clip-rule="evenodd" d="M104.491 33.9811C79.4987 33.9178 54.5037 33.8515 29.5111 33.7833C29.0148 33.7816 28.501 33.8041 28.0289 33.7052C25.5948 33.1967 24.6939 31.6705 26.1615 29.9365C28.7237 26.9098 31.6644 24.2668 36.669 24.2652C37.896 24.2648 39.043 24.2623 40.1265 24.2587L40.4005 23.6238C39.1318 23.6096 37.4118 23.5998 34.8463 23.5957C32.0748 23.5915 29.6685 24.4115 27.8165 26.2239C26.557 27.4579 25.0816 28.5779 24.067 29.9411C22.0922 32.5946 24.5681 34.6955 27.4021 34.8104C32.3233 35.0087 37.2609 34.9891 42.1923 34.9845C51.9197 34.9764 61.648 34.8986 71.3753 34.8807C91.5055 34.8431 111.638 34.8291 131.768 34.7998C133.543 34.7969 138.066 34.7879 142.283 34.7728L142.284 34.0468C130.13 34.0249 114.41 34.006 104.491 33.9811Z" fill="#008585"/>
<path fill-rule="evenodd" clip-rule="evenodd" d="M8.26231 26.2458C6.78009 26.2597 5.7378 27.1691 5.93826 28.3794C6.13225 29.5493 6.43794 30.7343 6.93627 31.8341C7.42681 32.916 8.6616 33.3501 9.96627 33.5158C10.9453 33.6395 11.937 33.7402 12.9249 33.7561C15.1135 33.7903 17.3035 33.7671 19.5101 33.6448C18.4753 33.5149 17.4423 33.3796 16.4064 33.2566C14.7603 33.06 13.0903 32.9566 11.4712 32.6553C10.0647 32.3929 8.94836 31.7229 8.69263 30.3725C8.62659 30.0229 8.43839 29.6919 8.3365 29.3462C7.88679 27.8247 8.6644 26.8977 10.5426 26.8466C13.0601 26.7788 15.5807 26.789 18.0997 26.7678C18.6654 26.7625 19.2311 26.7669 19.7964 26.7669C19.7988 26.7146 19.8008 26.6635 19.8032 26.6116C18.0139 26.5037 16.2265 26.3562 14.4352 26.3006C12.3794 26.236 10.3194 26.2258 8.26231 26.2458Z" fill="#008585"/>
<path fill-rule="evenodd" clip-rule="evenodd" d="M7.42769 13.292C7.51249 13.2434 7.58866 13.2319 7.6708 13.1973C8.52277 12.5743 10.2189 12.1929 12.1955 12.1451C17.0663 12.027 20.6353 15.0766 20.3606 15.9563C20.2961 16.1619 20.133 16.334 19.9069 16.477C22.739 16.8756 25.6083 17.2487 28.4278 17.7155C28.4893 17.5675 25.2046 15.3951 23.4235 14.5429C21.0495 13.4065 18.6368 12.2866 16.1148 11.4184C11.6449 9.87987 7.35534 10.887 4.90383 13.4265C3.38709 14.9969 2.62192 16.8825 2.03829 18.8151C0.877664 22.6588 0.618604 26.593 0.458467 30.5338C0.450833 30.7131 0.455145 30.8984 0.45166 31.0786V34.8693C0.895232 34.8759 1.36088 34.8825 1.88012 34.8889C1.90285 34.5309 1.92626 34.2472 1.93788 33.9627C2.07661 30.5272 2.03147 27.0791 2.40401 23.6623C2.74171 20.5604 3.46174 17.4674 5.5573 14.7849C6.01863 14.1934 6.72358 13.6963 7.42769 13.292Z" fill="#008585"/>
</svg>
